<svg width="48" height="48" viewBox="0 0 48 48" fill="none" xmlns="http://www.w3.org/2000/svg">
<path d="M44 22.1C44 21.88 44 21.66 44 21.44L43.82 20.24L43.64 19.46C43.64 19.12 43.48 18.78 43.38 18.44C43.28 18.1 43.22 17.9 43.12 17.64C43.0641 17.4828 43.0174 17.3226 42.98 17.16C42.98 17.16 42.98 17.16 42.98 17.06C41.9673 14.366 40.3905 11.9196 38.3555 9.88452C36.3204 7.84944 33.874 6.27273 31.18 5.26C31.18 5.26 31.18 5.26 31.08 5.26L30.62 5.12L29.78 4.86C29.48 4.86 29.16 4.7 28.86 4.62L27.94 4.42L27.02 4.28C26.7 4.28 26.4 4.28 26.06 4.16C25.72 4.04 25.36 4.16 25.02 4.16L24 4H23.22C22.88 4 22.52 4 22.18 4C21.84 4 21.54 4 21.22 4.12L20.3 4.26L19.38 4.46C19.08 4.46 18.76 4.6 18.46 4.7L17.62 4.96L17.16 5.1C17.16 5.1 17.16 5.1 17.06 5.1C14.366 6.11273 11.9196 7.68944 9.88451 9.72452C7.84943 11.7596 6.27273 14.206 5.25999 16.9C5.25999 16.9 5.25999 16.9 5.25999 17C5.22259 17.1626 5.17584 17.3228 5.11999 17.48C5.11999 17.74 4.93999 18 4.85999 18.28C4.77999 18.56 4.67999 18.96 4.59999 19.3L4.41999 20.08L4.23999 21.28C4.23999 21.5 4.23999 21.72 4.23999 21.94C4.23999 22.56 4.23999 23.2 4.23999 23.84C4.23999 24.48 4.23999 25.12 4.23999 25.74C4.23999 25.96 4.23999 26.18 4.23999 26.4L4.41999 27.6L4.59999 28.38C4.59999 28.72 4.75999 29.06 4.85999 29.4C4.95999 29.74 5.01999 29.94 5.11999 30.2C5.17584 30.3572 5.22259 30.5174 5.25999 30.68C5.2638 30.7266 5.2638 30.7734 5.25999 30.82C6.26391 33.5111 7.83571 35.9544 9.86845 37.9837C11.9012 40.013 14.3472 41.5807 17.04 42.58C17.04 42.58 17.04 42.58 17.14 42.58L17.62 42.72L18.42 42.98L19.44 43.24L20.22 43.42L21.42 43.6H22.08C22.7 43.6 23.34 43.7 23.98 43.7C24.62 43.7 25.26 43.7 25.88 43.6H26.54L27.74 43.42L28.52 43.24L29.54 42.98L30.34 42.72L30.82 42.58C30.82 42.58 30.82 42.58 30.92 42.58C33.6128 41.5807 36.0588 40.013 38.0915 37.9837C40.1243 35.9544 41.6961 33.5111 42.7 30.82C42.6962 30.7734 42.6962 30.7266 42.7 30.68C42.7 30.52 42.8 30.36 42.84 30.2C42.88 30.04 43.02 29.68 43.1 29.4C43.18 29.12 43.28 28.72 43.36 28.38L43.54 27.6L43.72 26.4C43.72 26.18 43.72 25.96 43.72 25.74C43.72 25.12 43.82 24.48 43.82 23.84C43.82 23.2 44 22.72 44 22.1ZM31.4 9.78C34.3728 11.3073 36.7927 13.7272 38.32 16.7L32.6 18.7C31.7708 17.3711 30.6489 16.2492 29.32 15.42L31.4 9.78ZM20.68 8.38C21.1 8.28 21.5 8.22 21.9 8.16H22.38C23.5235 8.04 24.6765 8.04 25.82 8.16H26.3C26.7 8.16 27.1 8.28 27.52 8.38H27.64L25.64 14.1C25.0975 14.0166 24.5486 13.9831 24 14C23.5108 13.9994 23.0225 14.0395 22.54 14.12L20.54 8.4L20.68 8.38ZM16.8 9.78L18.8 15.5C17.4638 16.3268 16.3349 17.4488 15.5 18.78L9.77999 16.78C11.2938 13.7775 13.7151 11.3282 16.7 9.78H16.8ZM8.37999 27.42C8.2842 27.0254 8.21736 26.6243 8.17999 26.22C8.17999 26.04 8.17999 25.88 8.17999 25.72C8.04664 24.5772 8.04664 23.4228 8.17999 22.28C8.17999 22.12 8.17999 21.96 8.17999 21.78C8.21736 21.3757 8.2842 20.9746 8.37999 20.58C8.37999 20.58 8.37999 20.58 8.37999 20.46L14.1 22.46C13.94 23.4268 13.94 24.4132 14.1 25.38L8.37999 27.38C8.37999 27.38 8.37999 27.46 8.37999 27.42ZM16.7 38.22C13.7272 36.6927 11.3073 34.2728 9.77999 31.3L15.5 29.3C16.3292 30.6289 17.451 31.7508 18.78 32.58L16.7 38.22ZM27.42 39.62C27 39.72 26.6 39.78 26.2 39.84H25.72C24.5765 39.96 23.4235 39.96 22.28 39.84H21.8C21.4 39.84 21 39.72 20.58 39.62H20.46L22.46 33.9C23.4267 34.06 24.4132 34.06 25.38 33.9L27.38 39.62H27.42ZM26.08 29.62C25.74 29.74 25.4 29.82 25.08 29.9C24.419 30.0231 23.741 30.0231 23.08 29.9C22.76 29.9 22.42 29.74 22.08 29.62C21.2359 29.3285 20.4674 28.8523 19.8308 28.226C19.1941 27.5997 18.7053 26.8392 18.4 26V26C18.2789 25.6682 18.1853 25.3271 18.12 24.98C17.9921 24.3195 17.9921 23.6405 18.12 22.98C18.1808 22.647 18.2678 22.3194 18.38 22C18.6815 21.1707 19.1623 20.418 19.788 19.7958C20.4137 19.1735 21.169 18.6969 22 18.4V18.4C22.34 18.28 22.68 18.2 23 18.12C23.661 17.9969 24.339 17.9969 25 18.12C25.32 18.12 25.66 18.28 26 18.4C26.8273 18.6994 27.5786 19.1771 28.2008 19.7992C28.8229 20.4214 29.3006 21.1727 29.6 22V22C29.721 22.3318 29.8147 22.6729 29.88 23.02C30.0079 23.6805 30.0079 24.3595 29.88 25.02C29.8147 25.3671 29.721 25.7082 29.6 26.04C29.2956 26.8599 28.8157 27.6034 28.1939 28.2183C27.572 28.8333 26.8232 29.3048 26 29.6L26.08 29.62ZM31.3 38.24L29.3 32.52C30.6289 31.6908 31.7508 30.5689 32.58 29.24L38.3 31.24C36.7619 34.2472 34.3116 36.6905 31.3 38.22V38.24ZM40 25.72C40 25.88 40 26.04 40 26.22C39.9626 26.6243 39.8958 27.0254 39.8 27.42C39.8 27.42 39.8 27.42 39.8 27.54L34.08 25.54C34.24 24.5732 34.24 23.5868 34.08 22.62L39.8 20.62C39.8 20.62 39.8 20.62 39.8 20.74C39.8958 21.1346 39.9626 21.5357 40 21.94C40 22.12 40 22.28 40 22.44C40.1333 23.5828 40.1333 24.7372 40 25.88V25.72Z" fill="#B69D75"/>
</svg>
