<svg width="48" height="48" viewBox="0 0 48 48" fill="none" xmlns="http://www.w3.org/2000/svg">
<path d="M38.176 9.90906C38.1614 9.89344 38.157 9.87268 38.1417 9.85742C38.1265 9.84216 38.1054 9.83752 38.0896 9.82276C34.3487 6.09386 29.2821 4 24.0001 4C18.7182 4 13.6516 6.09386 9.91065 9.82276C9.89491 9.83752 9.87391 9.84204 9.85853 9.85742C9.84315 9.8728 9.83887 9.89342 9.82423 9.90906C7.03675 12.7099 5.14142 16.2737 4.37746 20.1507C3.6135 24.0277 4.01514 28.0441 5.5317 31.6931C7.04826 35.342 9.61176 38.46 12.8987 40.6534C16.1856 42.8468 20.0486 44.0173 24.0001 44.0173C27.9517 44.0173 31.8147 42.8468 35.1016 40.6534C38.3885 38.46 40.952 35.342 42.4686 31.6931C43.9851 28.0441 44.3868 24.0277 43.6228 20.1507C42.8588 16.2737 40.9635 12.7099 38.176 9.90906V9.90906ZM24 40C21.6046 39.9992 19.24 39.4595 17.0814 38.4209C14.9228 37.3823 13.0255 35.8713 11.53 34H19.5606C20.1167 34.6287 20.8001 35.1321 21.5654 35.4769C22.3308 35.8217 23.1606 36 24 36C24.8394 36 25.6693 35.8217 26.4346 35.4769C27.1999 35.1321 27.8833 34.6287 28.4395 34H36.4701C34.9747 35.8714 33.0774 37.3823 30.9188 38.4209C28.7601 39.4595 26.3955 39.9992 24 40V40ZM22 30C22 29.6044 22.1173 29.2178 22.3371 28.8889C22.5569 28.56 22.8692 28.3036 23.2347 28.1522C23.6001 28.0009 24.0022 27.9613 24.3902 28.0384C24.7782 28.1156 25.1345 28.3061 25.4142 28.5858C25.6939 28.8655 25.8844 29.2219 25.9616 29.6098C26.0388 29.9978 25.9992 30.3999 25.8478 30.7654C25.6964 31.1308 25.4401 31.4432 25.1112 31.6629C24.7823 31.8827 24.3956 32 24 32C23.4698 31.9995 22.9614 31.7886 22.5864 31.4136C22.2114 31.0387 22.0006 30.5303 22 30V30ZM38.8205 30.0042L38.7998 30H30C29.9962 28.7632 29.6097 27.558 28.8935 26.5496C28.1773 25.5413 27.1666 24.7794 26 24.3685V18C26 17.4696 25.7893 16.9609 25.4142 16.5858C25.0392 16.2107 24.5305 16 24 16C23.4696 16 22.9609 16.2107 22.5858 16.5858C22.2107 16.9609 22 17.4696 22 18V24.3685C20.8335 24.7794 19.8228 25.5413 19.1066 26.5496C18.3904 27.558 18.0038 28.7632 18 30H9.20023L9.17959 30.0042C8.65939 28.7206 8.30953 27.3744 8.13895 26H10C10.5305 26 11.0392 25.7893 11.4142 25.4142C11.7893 25.0391 12 24.5304 12 24C12 23.4696 11.7893 22.9609 11.4142 22.5858C11.0392 22.2107 10.5305 22 10 22H8.13895C8.49633 19.1571 9.61513 16.4636 11.3771 14.2042L12.6866 15.5137C12.8722 15.6994 13.0927 15.8467 13.3353 15.9472C13.578 16.0477 13.838 16.0994 14.1006 16.0994C14.3632 16.0994 14.6233 16.0477 14.8659 15.9472C15.1085 15.8467 15.329 15.6994 15.5147 15.5137C15.7004 15.328 15.8477 15.1075 15.9482 14.8649C16.0487 14.6223 16.1004 14.3622 16.1004 14.0996C16.1004 13.837 16.0487 13.5769 15.9482 13.3343C15.8477 13.0917 15.7004 12.8712 15.5147 12.6855L14.2054 11.3762C16.4646 9.61482 19.1577 8.49634 22 8.13892V10C22 10.5304 22.2107 11.0391 22.5858 11.4142C22.9609 11.7893 23.4696 12 24 12C24.5305 12 25.0392 11.7893 25.4142 11.4142C25.7893 11.0391 26 10.5304 26 10V8.13892C28.8424 8.49634 31.5355 9.61482 33.7947 11.3762L32.4854 12.6855C32.1104 13.0606 31.8997 13.5692 31.8997 14.0996C31.8997 14.63 32.1104 15.1386 32.4854 15.5137C32.8604 15.8887 33.3691 16.0994 33.8994 16.0994C34.4298 16.0994 34.9385 15.8887 35.3135 15.5137L36.623 14.2042C38.3849 16.4636 39.5037 19.1571 39.8611 22H38C37.4696 22 36.9609 22.2107 36.5858 22.5858C36.2107 22.9609 36 23.4696 36 24C36 24.5304 36.2107 25.0391 36.5858 25.4142C36.9609 25.7893 37.4696 26 38 26H39.8611C39.6905 27.3744 39.3407 28.7206 38.8205 30.0042V30.0042Z" fill="#B69D75"/>
</svg>
